<?xml version="1.0" standalone="no"?>
<!DOCTYPE svg PUBLIC "-//W3C//DTD SVG 20010904//EN"
 "http://www.w3.org/TR/2001/REC-SVG-20010904/DTD/svg10.dtd">
<svg version="1.0" xmlns="http://www.w3.org/2000/svg"
 width="32.000000pt" height="32.000000pt" viewBox="0 0 32.000000 32.000000"
 preserveAspectRatio="xMidYMid meet">

<g transform="translate(0.000000,32.000000) scale(0.100000,-0.100000)"
fill="#000000" stroke="none">
<path d="M95 306 c-101 -44 -125 -178 -46 -257 65 -65 157 -65 222 0 124 124
-15 327 -176 257z m132 -26 c65 -39 85 -105 54 -175 -11 -25 -25 -45 -30 -45
-14 0 -14 17 -1 25 6 3 10 19 10 35 0 38 -39 67 -69 51 -29 -16 -32 -14 -27
14 3 14 -2 31 -10 39 -8 8 -14 20 -14 26 0 6 -5 8 -12 4 -7 -5 -20 -9 -29 -9
-22 -2 -44 -26 -43 -45 1 -8 2 -23 3 -32 0 -10 10 -27 20 -37 16 -16 17 -20 5
-25 -8 -3 -14 -12 -14 -21 0 -27 -17 -16 -35 21 -55 117 82 242 192 174z m-71
-177 c-13 -14 -25 9 -13 28 12 20 12 20 15 -1 2 -12 1 -24 -2 -27z m24 -39 c0
-8 -4 -14 -10 -14 -5 0 -10 9 -10 21 0 11 5 17 10 14 6 -3 10 -13 10 -21z"/>
</g>
</svg>
